<?xml version="1.0" encoding="UTF-8"?>
<!DOCTYPE svg PUBLIC "-//W3C//DTD SVG 1.1//EN" "http://www.w3.org/Graphics/SVG/1.1/DTD/svg11.dtd">
<!-- Creator: CorelDRAW 2021 (64-Bit) -->
<svg xmlns="http://www.w3.org/2000/svg" xml:space="preserve" width="210mm" height="90mm" version="1.1" style="shape-rendering:geometricPrecision; text-rendering:geometricPrecision; image-rendering:optimizeQuality; fill-rule:evenodd; clip-rule:evenodd"
viewBox="0 0 21000 9000"
 xmlns:xlink="http://www.w3.org/1999/xlink"
 xmlns:xodm="http://www.corel.com/coreldraw/odm/2003">
 <defs>
  <style type="text/css">
   <![CDATA[
    .fil0 {fill:#201E1E;fill-rule:nonzero}
   ]]>
  </style>
 </defs>
 <g id="Capa_x0020_1">
  <metadata id="CorelCorpID_0Corel-Layer"/>
  <path class="fil0" d="M6081.15 5960.62c-175.71,88.79 -293.97,171.09 -293.97,171.09 -505.64,-327.66 -904.51,-374.35 -904.51,-374.35 0,0 42.86,-2267.63 0,-2266.12 268.33,-7.26 466.61,-66.23 608.63,-133.97 0,0 99.17,1070.26 33.7,1191.99 -65.48,121.72 -109.85,27.95 -115.59,252.62 -5.74,224.72 0,646.15 0,646.15l671.74 512.59zm576.51 -203.26c-209.41,35.61 -416.86,122.13 -576.86,203.26 0,0 -43.26,-999.09 0,-1092.87 43.26,-93.77 99.16,-43.61 127.47,-274.83 27.95,-231.21 0,-755.24 0,-755.24l-717.37 -480.41c211.32,-101.08 295.88,-221.65 295.88,-221.65 356.02,271.41 824.14,458.61 824.14,458.61 0,0 0.05,1910.51 46.74,2163.13zm70.45 -2287.93c0,0 271.41,630.09 1029.72,784.7l-224.72 0c0,0 -18.73,627.37 18.74,730.36 37.52,103 124.8,93.02 330.73,-56.65 205.93,-149.68 -171.49,208.25 -330.73,245.77 -159.25,37.52 0,505.64 0,505.64 0,0 346.44,205.93 664.89,46.68l1.15 -1591.61c0,0 -571.11,64.31 -842.51,-460.12l485.74 -633.11c0,0 193.3,526.7 926.73,193.7 501.46,-227.74 -214.75,565.77 -949.34,403.05 -383.56,-84.96 -52.83,486.91 864.73,308.93l27.95 1572.88c-344.88,180.3 -786.61,358.68 -870.82,608.63 -102.99,37.52 -898.78,-243.45 -898.78,-243.45 0,0 -215.5,-524.43 355.62,-636.59l-355.62 -121.72 0 -1058.03 -233.48 -599.06zm4056.78 876.21c-17.23,20.65 -588.74,617.05 -907.59,804.65 -335.32,197.12 247.68,-21.05 247.68,-21.05l-13.8 497.23c0,0 -657.99,189.11 -657.99,-158.85 0,-313.5 17.23,-781.63 -4.98,-809.23 -4.59,1.16 -6.15,0.76 -3.83,-0.75 1.51,-1.16 2.67,-0.76 3.83,0.75 54.34,-13.8 530.52,-226.98 698.23,-885.78 182.61,-716.56 -98.01,-891.87 -379.34,-800.41 -280.97,91.51 -793.51,526.69 -793.51,526.69l0 1003.28c0,0 -84.21,0.75 -77.31,127.47 7.25,126.31 38.68,1123.49 38.68,1123.49 0,0 24.88,428.34 445.96,287.87 421.44,-140.11 741.85,-273.67 741.85,-273.67l198.68 379.74c0,0 52.43,-225.48 312,-239.63l-2.67 -1197.37 154.11 -364.43zm-1326.76 -875.05c27.95,-63.16 329.98,-49.36 336.88,407.28 7.25,456.29 -336.88,519.44 -336.88,519.44l0 -926.72zm-272.16 2055.96c-11.08,75.79 -1435.09,1160.26 -2413.49,1250.56 -2936.75,270.24 -2788.23,-2463.65 -2788.23,-2463.65l0.4 -0.4c16.82,-12.24 125.55,-147.77 202.51,-265.26 164.58,-249.96 427.58,-1520.81 -315.42,-1193.15l0 -1.51 -27.55 -0.4 -0.4 11.88c-93.02,32.54 -158.09,104.1 -158.09,104.1 0,0 13.8,1974.02 -126.72,2116.05l-52.42 1377.67c105.25,14.15 186.04,39.79 255.69,68.54l19.89 -465.85c-1.51,8.06 -2.32,16.47 -3.07,25.28 -0.4,7.25 -0.76,14.15 -1.16,19.54 0,1.16 -0.4,1.91 -0.4,2.67 -0.76,9.97 -1.51,16.07 -1.92,19.14 -0.75,-4.59 -1.91,-17.63 -3.07,-41.35 -0.4,-1.51 -0.4,-3.07 -0.4,-4.23 -16.82,-222.4 -347.2,-150.84 -167.66,-236.55 111,-53.19 165.75,-148.12 185.64,-213.24l0 -0.4 53.18 -2771.02c9.17,-3.42 18.38,-6.49 27.95,-9.56l-53.48 2847.61c0,0.4 0,0.4 0,0.4 17.62,53.19 54.34,109.49 130.54,145.45 148.92,70.81 -53.59,33.69 -136.28,146.61l-21.46 546.99c174.56,76.95 287.07,168.06 581.84,127.46 373.59,-51.26 -308.17,-358.68 -308.17,-358.68 0,0 95.34,-331.13 272.92,-274.83 445.96,142.02 512.54,613.62 283.24,742.25 -825.3,463.54 -1434.33,-613.98 -2761.04,382.4 8.41,-17.22 293.21,-562.7 1126.57,-684.83l40.59 -3255.25c-396.96,205.18 -667.21,388.9 -682.52,399.23 178.39,-243.46 646.16,-550.47 646.16,-550.47 0,0 1358.13,-669.12 1624.95,-542.41 266.82,126.31 220.09,1071.82 28.31,1369.62 -113.32,176.47 -223.57,240.03 -419.93,325.39l-230.46 88.44c27.55,-9.17 117.9,-39.43 230.46,-88.44 0,0 -94.53,2354.16 2314.72,2471.31 1158.35,55.5 2632.47,-1095.55 2647.78,-1167.11zm5724.23 -2475.13c175.72,-88.79 293.97,-171.08 293.97,-171.08 505.64,327.66 904.52,374.34 904.52,374.34 0,0 -42.86,2267.64 0,2266.13 -268.34,7.25 -466.61,66.22 -608.64,133.96 0,0 -99.16,-1070.26 -33.69,-1191.99 65.47,-121.72 109.84,-27.95 115.58,-252.61 5.74,-224.72 0,-646.16 0,-646.16l-671.74 -512.59zm-576.45 203.26c209.41,-35.6 416.85,-122.13 576.86,-203.26 0,0 43.26,999.1 0,1092.87 -43.26,93.78 -99.17,43.61 -127.47,274.83 -27.95,231.22 0,755.24 0,755.24l717.37 480.41c-211.33,101.08 -295.89,221.65 -295.89,221.65 -356.01,-271.41 -824.13,-458.61 -824.13,-458.61 0,0 -0.05,-1910.51 -46.74,-2163.13zm-70.46 2287.93c0,0 -271.4,-630.09 -1029.71,-784.7l224.71 0c0,0 18.74,-627.37 -18.73,-730.36 -37.47,-102.99 -124.8,-93.02 -330.73,56.66 -205.94,149.68 171.48,-208.25 330.73,-245.77 159.25,-37.52 0,-505.65 0,-505.65 0,0 -346.45,-205.93 -664.89,-46.68l-1.16 1591.61c0,0 571.12,-64.31 842.52,460.12l-485.8 633.11c0,0 -193.29,-526.69 -926.72,-193.7 -501.47,227.74 214.74,-565.77 949.33,-403.05 383.57,84.96 52.83,-486.91 -864.72,-308.92l-27.96 -1572.89c344.89,-180.29 786.62,-358.68 870.83,-608.63 102.99,-37.52 898.77,243.45 898.77,243.45 0,0 215.5,524.43 -355.61,636.59l355.61 121.73 0 1058.02 233.53 599.06zm-4056.82 -876.21c17.22,-20.65 588.74,-617.04 907.59,-804.64 335.31,-197.12 -247.69,21.05 -247.69,21.05l14.16 -497.23c0,0 657.99,-189.12 657.99,158.84 0,313.51 -17.23,781.63 4.98,809.23 4.58,-1.16 6.15,-0.76 3.83,0.75 -1.51,1.16 -2.67,0.76 -3.83,-0.75 -54.34,13.8 -530.52,226.98 -698.23,885.78 -182.61,716.56 98.01,891.87 379.33,800.42 280.98,-91.51 793.52,-526.7 793.52,-526.7l0 -1003.28c0,0 84.21,-0.75 77.31,-127.46 -7.26,-126.31 -38.68,-1123.5 -38.68,-1123.5 0,0 -24.88,-428.33 -445.96,-287.87 -421.44,140.11 -741.85,273.67 -741.85,273.67l-198.68 -379.74c0,0 -52.43,225.48 -312,239.63l2.67 1197.38 -154.46 364.42zm1326.76 875.06c-27.95,63.15 -329.98,49.35 -336.88,-407.29 -7.25,-456.29 336.88,-519.44 336.88,-519.44l0 926.73zm271.81 -2055.97c11.08,-75.79 1435.08,-1160.25 2413.48,-1250.55 2936.76,-270.25 2788.24,2463.64 2788.24,2463.64l-0.41 0.41c-16.82,12.23 -125.55,147.76 -202.51,265.26 -164.58,249.95 -427.58,1520.8 315.43,1193.14l0 1.51 27.55 0.41 0.4 -11.89c93.02,-32.53 158.09,-104.1 158.09,-104.1 0,0 -13.8,-1974.02 126.71,-2116.04l52.43 -1377.68c-105.26,-14.15 -186.04,-39.78 -255.69,-68.54l-19.9 465.86c1.51,-8.06 2.32,-16.47 3.07,-25.29 0.41,-7.25 0.76,-14.15 1.16,-19.54 0,-1.16 0.41,-1.91 0.41,-2.67 0.75,-9.97 1.51,-16.06 1.91,-19.13 0.76,4.58 1.91,17.62 3.07,41.34 0.4,1.51 0.4,3.08 0.4,4.23 16.83,222.41 347.21,150.84 167.66,236.56 -111,53.18 -165.74,148.11 -185.63,213.23l0 0.41 -53.19 2771.01c-9.16,3.42 -18.38,6.49 -27.95,9.57l54.34 -2848.32c0,-0.4 0,-0.4 0,-0.4 -17.62,-53.19 -54.34,-109.49 -130.54,-145.45 -148.92,-70.81 53.59,-33.69 136.28,-146.61l21.46 -546.99c-174.56,-76.95 -287.07,-168.06 -581.84,-127.47 -373.59,51.27 308.17,358.69 308.17,358.69 0,0 -95.34,331.13 -272.92,274.83 -445.96,-142.03 -512.54,-613.62 -283.24,-742.25 825.3,-463.54 1434.33,613.97 2761.04,-382.4 -8.41,17.22 -293.21,562.7 -1126.57,684.83l-40.59 3255.25c396.96,-205.18 667.21,-388.9 682.52,-399.23 -178.39,243.46 -646.16,550.47 -646.16,550.47 0,0 -1358.13,669.12 -1624.95,542.41 -266.82,-126.31 -220.09,-1071.83 -28.31,-1369.62 113.32,-176.47 223.56,-240.03 419.93,-325.4l230.46 -88.43c-27.55,9.16 -117.9,39.43 -230.46,88.43 0,0 94.53,-2354.15 -2314.72,-2471.3 -1158.85,-54.79 -2632.97,1096.25 -2648.63,1167.81z"/>
 </g>
</svg>
