<?xml version="1.0" encoding="UTF-8"?>
<!DOCTYPE svg PUBLIC "-//W3C//DTD SVG 1.1//EN" "http://www.w3.org/Graphics/SVG/1.1/DTD/svg11.dtd">
<!-- Creator: CorelDRAW 2021 (64-Bit) -->
<svg xmlns="http://www.w3.org/2000/svg" xml:space="preserve" width="105mm" height="100mm" version="1.1" style="shape-rendering:geometricPrecision; text-rendering:geometricPrecision; image-rendering:optimizeQuality; fill-rule:evenodd; clip-rule:evenodd"
viewBox="0 0 10500 10000"
 xmlns:xlink="http://www.w3.org/1999/xlink"
 xmlns:xodm="http://www.corel.com/coreldraw/odm/2003">
 <defs>
  <style type="text/css">
   <![CDATA[
    .fil0 {fill:black;fill-rule:nonzero}
   ]]>
  </style>
 </defs>
 <g id="Capa_x0020_1">
  <metadata id="CorelCorpID_0Corel-Layer"/>
  <g>
   <path class="fil0" d="M5240.35 7944.23c-11.68,-15.82 -78.19,-293.79 -109.38,-517.59 -20.55,-148.43 -32.88,-221.78 -85.01,-262.2 -37.02,-28.83 -94.58,89.82 -211.13,149.44 -68.89,35.31 -128.89,69.22 -166.94,82.57 -132.3,46.64 -148.07,59.66 -226.92,89.11 -203.26,75.73 -556.99,254.32 -755.79,132.28 -262.56,-161.09 -1368,257.1 -1038.24,136.76 433.93,-158.03 -201.91,-1358.4 -190.24,-1421.77 100.75,-551.17 316.37,-560.8 557.34,-765.42 0,0 300.26,-398.27 626.93,-481.93 101.11,-26.05 158.71,-33.92 158.71,-33.92 104.56,-16.12 150.47,-10.97 153.24,-22.63 5.5,-26.39 -222.46,-62.03 -415.77,-160.76 -195.38,-99.41 -293.43,-355.13 -667.69,-655.03 -355.14,-284.83 -383.89,-470.62 -396.26,-640.65 -16.44,-223.48 120.31,-673.53 53.84,-770.88 -41.15,-60 312.28,-229.65 381.18,-265.31 623.5,-322.2 1334.39,276.29 1476.29,317.38 64.76,18.86 100.44,29.48 173.1,88.08 42.17,34.31 590.27,551.49 288.62,306.81 -2.03,-1.72 -425.71,-185.1 -574.46,-243.7 -93.58,-36.68 -850.77,-556.65 -1188.03,-168.3 -44.88,51.76 -100.41,281.44 -28.47,595.38 68.89,299.2 226.26,486.75 444.24,746.54 52.79,62.74 239.59,220.42 472.31,434.63 264.61,243.35 736.92,214.93 792.8,203.26 166.25,-35.32 256.02,-114.12 262.2,-120.29 97.02,-97.02 213.24,-281.77 213.24,-267.34 0,18.85 38.03,246.12 38.03,281.79 0,376.68 0.33,547.39 0,695.13 0,18.53 0,55.86 0,56.9 1.69,117.22 -30.86,116.54 -36.68,118.23 -13.72,3.46 -73.03,-174.1 -233.78,-311.91 -61.7,-53.15 -109.02,-111.07 -188.89,-134.73 -114.85,-33.92 -165.57,72.34 -444.24,225.9 -170.37,93.91 -215.27,92.89 -356.15,190.25 -21.94,15.05 -117.56,81.92 -202.23,164.21 -99.41,96.67 -351.03,341.37 -366.41,707.49 -2.38,60.69 -17.49,419.55 253.64,648.17 51.75,43.54 208.07,163.87 425.39,160.77 264.62,-4.13 443.88,-180.97 566.95,-302.33 48.66,-48 193.64,-199.12 293.04,-444.23 122.04,-301.65 249.86,-541.59 250.92,-583.38 0.7,-24.31 -1.7,117.58 0,188.89 2.72,106.92 -0.33,295.13 0,649.53l0.7 1204.8zm0 0l0 0 0 0zm3.71 -5880.87c11.68,15.79 78.19,293.76 109.38,517.59 20.53,148.42 32.88,221.78 85.01,262.21 37.02,28.79 94.58,-89.85 211.14,-149.46 68.88,-35.32 128.88,-69.24 166.92,-82.58 132.29,-46.64 148.08,-59.66 226.92,-89.11 203.27,-75.74 557.01,-254.33 755.8,-132.27 262.57,161.09 1368,-257.11 1038.24,-136.76 -433.93,158.03 201.91,1358.39 190.23,1421.78 -100.74,551.16 -316.36,560.77 -557.33,765.42 0,0 -300.26,398.25 -626.93,481.93 -101.11,26.02 -158.73,33.89 -158.73,33.89 -104.54,16.15 -150.44,11 -153.22,22.66 -5.5,26.36 222.46,62.03 415.77,160.73 195.38,99.42 293.43,355.14 667.69,655.04 355.14,284.84 383.9,470.61 396.23,640.64 16.47,223.48 -120.28,673.54 -53.81,770.9 41.15,59.99 -312.28,229.65 -381.18,265.32 -623.51,322.17 -1334.38,-276.29 -1476.31,-317.41 -64.74,-18.83 -100.41,-29.48 -173.08,-88.07 -42.19,-34.29 -590.27,-551.5 -288.64,-306.79 2.05,1.7 425.73,185.09 574.48,243.67 93.58,36.7 850.77,556.65 1188.04,168.3 44.87,-51.74 100.4,-281.44 28.46,-595.38 -68.89,-299.2 -226.26,-486.73 -444.24,-746.54 -52.82,-62.71 -239.59,-220.41 -472.32,-434.63 -264.62,-243.32 -736.91,-214.9 -792.79,-203.24 -166.26,35.32 -256.04,114.1 -262.19,120.27 -97.03,97.03 -213.24,281.77 -213.24,267.35 0,-18.83 0,-260.5 0,-296.15 0,-376.69 0,-527.51 0.33,-675.23 0,-18.53 -0.33,-27.75 -0.33,-28.82 -1.69,-117.22 -7.54,-150.46 -1.69,-151.86 13.69,-3.45 73,174.1 233.77,311.96 61.71,53.13 109.01,111.03 188.89,134.7 114.83,33.92 165.56,-72.34 444.22,-225.92 170.39,-93.9 215.27,-92.87 356.16,-190.22 21.97,-15.08 117.56,-81.9 202.25,-164.21 99.39,-96.7 351,-341.4 366.39,-707.5 2.39,-60.68 17.48,-419.56 -253.64,-648.19 -51.73,-43.51 -208.08,-163.85 -425.36,-160.75 -264.64,4.15 -443.9,180.98 -566.96,302.33 -48.69,47.98 -193.65,199.14 -293.05,444.24 -122.04,301.63 -249.84,541.58 -250.92,583.35 -0.69,24.35 1.7,-117.57 0,-188.89 -2.72,-106.92 0.34,-295.12 0,-649.51l-0.36 -1204.79zm0 0l0 0 0 0z"/>
  </g>
 </g>
</svg>
