<?xml version="1.0" encoding="utf-8"?>
<!-- Generator: Adobe Illustrator 25.0.0, SVG Export Plug-In . SVG Version: 6.00 Build 0)  -->
<svg version="1.1" id="Capa_1" xmlns="http://www.w3.org/2000/svg" xmlns:xlink="http://www.w3.org/1999/xlink" x="0px" y="0px"
	 viewBox="0 0 425.2 283.46" style="enable-background:new 0 0 425.2 283.46;" xml:space="preserve">
<style type="text/css">
	.st0{fill:#514696;}
</style>
<path class="st0" d="M213.82,50.84c0.34,0.46,2.28,8.57,3.19,15.1c0.6,4.33,0.96,6.47,2.48,7.65c1.08,0.84,2.76-2.62,6.16-4.36
	c2.01-1.03,3.76-2.02,4.87-2.41c3.86-1.36,4.32-1.74,6.62-2.6c5.93-2.21,16.25-7.42,22.05-3.86c7.66,4.7,39.91-7.5,30.29-3.99
	c-12.66,4.61,5.89,39.63,5.55,41.48c-2.94,16.08-9.23,16.36-16.26,22.33c0,0-8.76,11.62-18.29,14.06c-2.95,0.76-4.63,0.99-4.63,0.99
	c-3.05,0.47-4.39,0.32-4.47,0.66c-0.16,0.77,6.49,1.81,12.13,4.69c5.7,2.9,8.56,10.36,19.48,19.11
	c10.36,8.31,11.2,13.73,11.56,18.69c0.48,6.52-3.51,19.65-1.57,22.49c1.2,1.75-9.11,6.7-11.12,7.74
	c-18.19,9.4-38.93-8.06-43.07-9.26c-1.89-0.55-2.93-0.86-5.05-2.57c-1.23-1-17.22-16.09-8.42-8.95c0.06,0.05,12.42,5.4,16.76,7.11
	c2.73,1.07,24.82,16.24,34.66,4.91c1.31-1.51,2.93-8.21,0.83-17.37c-2.01-8.73-6.6-14.2-12.96-21.78
	c-1.54-1.83-6.99-6.43-13.78-12.68c-7.72-7.1-21.5-6.27-23.13-5.93c-4.85,1.03-7.47,3.33-7.65,3.51c-2.83,2.83-6.22,8.22-6.22,7.8
	c0-0.55,0-7.6,0-8.64c0-10.99,0-15.39,0.01-19.7c0-0.54-0.01-0.81-0.01-0.84c-0.05-3.42-0.22-4.39-0.05-4.43
	c0.4-0.1,2.13,5.08,6.82,9.1c1.8,1.55,3.18,3.24,5.51,3.93c3.35,0.99,4.83-2.11,12.96-6.59c4.97-2.74,6.28-2.71,10.39-5.55
	c0.64-0.44,3.43-2.39,5.9-4.79c2.9-2.82,10.24-9.96,10.69-20.64c0.07-1.77,0.51-12.24-7.4-18.91c-1.51-1.27-6.07-4.78-12.41-4.69
	c-7.72,0.12-12.95,5.28-16.54,8.82c-1.42,1.4-5.65,5.81-8.55,12.96c-3.56,8.8-7.29,15.8-7.32,17.02c-0.02,0.71,0.05-3.43,0-5.51
	c-0.08-3.12,0.01-8.61,0-18.95"/>
<path class="st0" d="M213.71,222.42c-0.34-0.46-2.28-8.57-3.19-15.1c-0.6-4.33-0.96-6.47-2.48-7.65c-1.08-0.84-2.76,2.62-6.16,4.36
	c-2.01,1.03-3.76,2.02-4.87,2.41c-3.86,1.36-4.32,1.74-6.62,2.6c-5.93,2.21-16.25,7.42-22.05,3.86c-7.66-4.7-39.91,7.5-30.29,3.99
	c12.66-4.61-5.89-39.63-5.55-41.48c2.94-16.08,9.23-16.36,16.26-22.33c0,0,8.76-11.62,18.29-14.06c2.95-0.76,4.63-0.99,4.63-0.99
	c3.05-0.47,4.39-0.32,4.47-0.66c0.16-0.77-6.49-1.81-12.13-4.69c-5.7-2.9-8.56-10.36-19.48-19.11
	c-10.36-8.31-11.2-13.73-11.56-18.69c-0.48-6.52,3.51-19.65,1.57-22.49c-1.2-1.75,9.11-6.7,11.12-7.74
	c18.19-9.4,38.93,8.06,43.07,9.26c1.89,0.55,2.93,0.86,5.05,2.57c1.23,1,17.22,16.09,8.42,8.95c-0.06-0.05-12.42-5.4-16.76-7.11
	c-2.73-1.07-24.82-16.24-34.66-4.91c-1.31,1.51-2.93,8.21-0.83,17.37c2.01,8.73,6.6,14.2,12.96,21.78
	c1.54,1.83,6.99,6.43,13.78,12.68c7.72,7.1,21.5,6.27,23.13,5.93c4.85-1.03,7.47-3.33,7.65-3.51c2.83-2.83,6.22-8.22,6.22-7.8
	c0,0.55,1.11,7.18,1.11,8.22c0,10.99,0.01,15.97,0,20.28c0,0.54,0,1.63,0,1.66c0.05,3.42-0.9,3.4-1.07,3.45
	c-0.4,0.1-2.13-5.08-6.82-9.1c-1.8-1.55-3.18-3.24-5.51-3.93c-3.35-0.99-4.83,2.11-12.96,6.59c-4.97,2.74-6.28,2.71-10.39,5.55
	c-0.64,0.44-3.43,2.39-5.9,4.79c-2.9,2.82-10.24,9.96-10.69,20.64c-0.07,1.77-0.51,12.24,7.4,18.91c1.51,1.27,6.07,4.78,12.41,4.69
	c7.72-0.12,12.95-5.28,16.54-8.82c1.42-1.4,5.65-5.81,8.55-12.96c3.56-8.8,7.29-15.8,7.32-17.02c0.02-0.71-0.05,3.43,0,5.51
	c0.08,3.12-0.01,8.61,0,18.95"/>
</svg>
